<?xml version="1.0" standalone="no"?>
<!DOCTYPE svg PUBLIC "-//W3C//DTD SVG 20010904//EN"
 "http://www.w3.org/TR/2001/REC-SVG-20010904/DTD/svg10.dtd">
<svg version="1.0" xmlns="http://www.w3.org/2000/svg"
 width="512.000000pt" height="512.000000pt" viewBox="0 0 512.000000 512.000000"
 preserveAspectRatio="xMidYMid meet">
<metadata>
Created by potrace 1.14, written by Peter Selinger 2001-2017
</metadata>
<g transform="translate(0.000000,512.000000) scale(0.100000,-0.100000)"
fill="#000000" stroke="none">
<path d="M1498 5055 c-188 -48 -269 -159 -270 -372 0 -123 30 -210 94 -269 94
-87 170 -107 468 -124 409 -23 725 -105 1069 -275 250 -124 469 -282 671 -485
404 -404 660 -912 745 -1480 8 -57 18 -135 20 -174 13 -183 17 -215 36 -274
55 -166 205 -251 417 -236 181 13 290 86 342 230 23 64 25 81 24 244 -1 146
-18 342 -40 454 -95 499 -286 940 -579 1341 -303 415 -693 756 -1150 1008
-379 209 -820 350 -1240 397 -55 6 -116 13 -135 16 -19 2 -120 6 -225 9 -147
4 -203 1 -247 -10z"/>
<path d="M1555 3808 c-175 -21 -284 -122 -321 -299 -33 -158 10 -304 111 -381
77 -59 192 -90 370 -102 184 -12 378 -66 546 -152 416 -212 671 -615 714
-1129 21 -244 138 -368 361 -380 210 -12 365 70 426 224 19 48 22 75 23 196 0
162 -6 221 -35 365 -72 345 -253 690 -495 940 -88 91 -160 157 -235 216 -327
255 -743 425 -1195 488 -150 21 -189 23 -270 14z"/>
<path d="M1332 2672 c-65 -24 -97 -52 -117 -107 -44 -113 -9 -232 80 -274 46
-22 88 -30 201 -36 45 -2 113 -11 150 -20 72 -16 224 -82 224 -97 0 -4 7 -8
15 -8 22 0 147 -127 186 -190 66 -104 112 -236 123 -347 7 -68 51 -139 105
-165 67 -32 161 -30 234 6 48 23 60 35 82 80 23 48 25 61 20 132 -8 117 -19
188 -34 219 -5 11 -17 45 -26 75 -22 73 -85 185 -156 280 -202 267 -555 442
-941 465 -76 5 -103 2 -146 -13z"/>
<path d="M180 1400 l0 -1230 247 2 248 3 34 117 34 117 35 -47 c127 -173 414
-268 668 -221 341 63 584 352 644 764 12 90 12 300 0 390 -64 450 -344 733
-745 752 -84 4 -130 2 -187 -11 -160 -36 -336 -147 -395 -250 -16 -27 -14 -65
-15 427 l0 417 -284 0 -284 0 0 -1230z m1089 175 c68 -31 146 -106 181 -174
71 -140 82 -375 25 -546 -37 -111 -116 -205 -214 -252 -49 -24 -68 -28 -146
-27 -159 0 -264 65 -333 205 -48 98 -61 174 -58 329 2 116 7 146 29 213 33 94
60 139 119 193 54 50 71 60 140 79 77 22 182 13 257 -20z"/>
</g>
</svg>
